<?xml version="1.0" encoding="utf-8"?>
<!-- Generator: Adobe Illustrator 22.0.1, SVG Export Plug-In . SVG Version: 6.00 Build 0)  -->
<svg version="1.2" baseProfile="tiny" id="Layer_1" xmlns="http://www.w3.org/2000/svg" xmlns:xlink="http://www.w3.org/1999/xlink"
	 x="0px" y="0px" viewBox="0 0 150 150" xml:space="preserve">
<g>
	<circle fill="none" stroke="#400A1C" stroke-width="2" stroke-miterlimit="10" cx="75.3" cy="74.8" r="53.7"/>
	<g>
		<g>
			<path fill="#400A1C" d="M13.9,76.6l1.6-8.6h3.3l-2.9,13.7h-3.4l-1.8-7.8l-1.8,7.8H5.4L2.5,68h3.3l1.6,8.6L9.2,68H12L13.9,76.6z"
				/>
		</g>
		<g>
			<path fill="#400A1C" d="M147.2,75.9H142v3.3h6.1v2.5h-9.4V68h9.5v2.6H142v2.9h5.2V75.9z"/>
		</g>
	</g>
	<g>
		<g>
			<path fill="#400A1C" d="M77.4,142.8c0-0.5-0.2-0.9-0.5-1.1c-0.3-0.3-0.9-0.5-1.8-0.8s-1.6-0.6-2.1-0.8c-1.8-0.9-2.7-2.1-2.7-3.6
				c0-0.8,0.2-1.4,0.7-2c0.4-0.6,1.1-1,1.9-1.4c0.8-0.3,1.7-0.5,2.7-0.5s1.9,0.2,2.7,0.5c0.8,0.4,1.4,0.9,1.8,1.5s0.6,1.4,0.6,2.2
				h-3.3c0-0.6-0.2-1-0.5-1.3s-0.8-0.5-1.4-0.5s-1.1,0.1-1.4,0.4c-0.3,0.3-0.5,0.6-0.5,1s0.2,0.7,0.6,1s1,0.6,2,0.9
				c0.9,0.3,1.7,0.6,2.3,1c1.5,0.9,2.2,2,2.2,3.5c0,1.2-0.5,2.1-1.4,2.8s-2.1,1-3.7,1c-1.1,0-2.1-0.2-3-0.6c-0.9-0.4-1.6-0.9-2-1.6
				c-0.5-0.7-0.7-1.5-0.7-2.4h3.3c0,0.7,0.2,1.3,0.6,1.6s1,0.5,1.9,0.5c0.5,0,1-0.1,1.3-0.4C77.2,143.6,77.4,143.3,77.4,142.8z"/>
		</g>
		<g>
			<path fill="#400A1C" d="M81,16.7h-3.3l-4.9-8.5v8.5h-3.3V3h3.3l4.8,8.5V3H81V16.7z"/>
		</g>
	</g>
</g>
</svg>
