<?xml version="1.0" encoding="utf-8"?>
<!-- Generator: Adobe Illustrator 22.0.1, SVG Export Plug-In . SVG Version: 6.00 Build 0)  -->
<svg version="1.2" baseProfile="tiny" id="Layer_1" xmlns="http://www.w3.org/2000/svg" xmlns:xlink="http://www.w3.org/1999/xlink"
	 x="0px" y="0px" viewBox="0 0 40 40" xml:space="preserve">
<path fill="#F0F9FA" d="M31.7,14H8.3c-0.9,0-1.7-0.7-1.7-1.7v-0.7c0-0.9,0.7-1.7,1.7-1.7h23.3c0.9,0,1.7,0.7,1.7,1.7v0.7
	C33.3,13.3,32.6,14,31.7,14z"/>
<path fill="#F0F9FA" d="M31.7,22H8.3c-0.9,0-1.7-0.7-1.7-1.7v-0.7c0-0.9,0.7-1.7,1.7-1.7h23.3c0.9,0,1.7,0.7,1.7,1.7v0.7
	C33.3,21.3,32.6,22,31.7,22z"/>
<path fill="#F0F9FA" d="M31.7,30H8.3c-0.9,0-1.7-0.7-1.7-1.7v-0.7c0-0.9,0.7-1.7,1.7-1.7h23.3c0.9,0,1.7,0.7,1.7,1.7v0.7
	C33.3,29.3,32.6,30,31.7,30z"/>
</svg>
